<?xml version="1.0" encoding="UTF-8"?>
<svg id="Layer_1" xmlns="http://www.w3.org/2000/svg" version="1.1" viewBox="0 0 1426.8 205.9">
  <!-- Generator: Adobe Illustrator 29.4.0, SVG Export Plug-In . SVG Version: 2.1.0 Build 152)  -->
  <defs>
    <style>
      .st0 {
        fill: #ff5722;
      }

      .st1 {
        stroke: #fff;
        stroke-miterlimit: 10;
        stroke-width: 2px;
      }

      .st1, .st2 {
        fill: #fff;
      }
    </style>
  </defs>
  <g>
    <g>
      <path class="st2" d="M803.3,0h33.4c1.4,0,2.6,1.2,2.6,2.6v158.1c0,1.4-1.2,2.6-2.6,2.6h-33.4c-1.4,0-2.6-1.2-2.6-2.6V2.6c0-1.4,1.2-2.6,2.6-2.6Z"/>
      <path class="st2" d="M998.5,108v-1.7c0-37.7,27.1-59.4,60.5-59.4s51.9,11.5,55.3,43.8c.2,1.5-1.1,2.9-2.6,2.9h-31.5c-1.2,0-2.2-.8-2.5-2-2.1-9.3-7.3-14.4-17.8-14.4s-21.7,9.8-21.7,28.8v1.7c0,19.7,7.6,29.9,22.3,29.9s17.5-5.8,19.4-16.7c.2-1.2,1.3-2.2,2.5-2.2h29.9c1.6,0,2.7,1.3,2.6,2.8-2.2,27-21.4,44.5-56.9,44.5s-59.6-19.7-59.6-57.9h0Z"/>
      <path class="st2" d="M1128.9,131.9c0-26.7,22.6-37.1,60.3-37.1h10.8v-2.6c0-10.8-2.6-18-15-18s-13.7,5.1-15.1,11.3c-.3,1.2-1.3,2.1-2.6,2.1h-31.4c-1.6,0-2.8-1.3-2.6-2.9,3-25.4,24.1-37.9,54-37.9s51.2,12.8,51.2,42.9v70.9c0,1.4-1.2,2.6-2.6,2.6h-32.6c-1.4,0-2.6-1.2-2.6-2.6v-3.5c0-2.3-2.7-3.4-4.3-1.8-5.9,5.9-15.1,10.5-29.3,10.5-20.4,0-38.4-10-38.4-34.1h0l.2.2ZM1200,123.6v-4.3c0-1.4-1.2-2.6-2.6-2.6h-7.6c-15.6,0-22.6,3-22.6,12.4s4.3,10.6,13.4,10.6,19.3-6.3,19.3-16.1h0Z"/>
      <path class="st2" d="M1267.6,0h33.4c1.4,0,2.6,1.2,2.6,2.6v158.1c0,1.4-1.2,2.6-2.6,2.6h-33.4c-1.4,0-2.6-1.2-2.6-2.6V2.6c0-1.4,1.2-2.6,2.6-2.6Z"/>
      <path class="st2" d="M1326.1,127.3h30.9c1.2,0,2.2.9,2.5,2,1.6,6.9,5.6,10.8,15.7,10.8s13.9-3.7,13.9-9.3-5.4-8-21-10.2c-30.4-3.9-43.2-12.8-43.2-36.4s22.3-37.3,48.6-37.3,46,8.9,49.7,33.7c.2,1.6-1,2.9-2.6,2.9h-30.2c-1.2,0-2.2-.8-2.5-1.9-1.8-6.3-6-9.4-14.1-9.4s-12.8,3.7-12.8,8.9,5.2,7.6,19.1,9.3c31.4,3.9,46.6,12.1,46.6,36.4s-19.9,39-51.4,39-49.7-12.4-51.9-35.8c0-1.5,1.1-2.8,2.6-2.8h.1Z"/>
    </g>
    <g>
      <path class="st0" d="M977.9,121.9c7-16,6.3-34.7-2.8-49.6-8.2-13.5-23.7-25.7-53.1-25.6-27.8,0-43.2,10.9-51.8,23.3-10.5,15.1-11.7,34.7-4.2,51.4,12.4,27.8,51.6,84.3,55.8,84.3,6.5,0,44.1-56.3,56.1-83.8Z"/>
      <path class="st2" d="M930.4,126.1c-5.7,0-9.8-3.5-11.6-8.9-1.9,4.2-5.2,6.8-10,6.7-8.2-.2-12.7-8.1-12.5-17,.2-9,5.1-16.5,13.1-16.3,4.8,0,7.9,2.9,9.7,7.1,2-5.5,6.2-8.5,11.8-8.4,9.2.2,14.2,8.2,14,18.7-.2,10.4-5.2,18.4-14.4,18.2h0ZM909.9,100.4c-3.6,0-6.1,2.8-6.2,6.5,0,3.8,2.2,6.8,6,6.9s6.2-3,6.3-6.7c0-3.8-2.2-6.7-6.1-6.7h0ZM929.8,99.7c-4.6,0-7.3,3.2-7.3,7.6s2.4,8,7.1,8.1c4.7,0,7.3-3.3,7.4-7.7,0-4.5-2.5-7.9-7.2-8Z"/>
    </g>
  </g>
  <g>
    <path class="st2" d="M0,131.6c0-26.6,22.8-37,60.8-37h8.4c1.4,0,2.6-1.2,2.6-2.6h0c0-10.8-2.6-18-15.1-18s-13.8,5.1-15.2,11.3c-.3,1.2-1.3,2.1-2.5,2.1H7.2c-1.5,0-2.8-1.3-2.6-2.9,3.1-25.3,24.3-37.8,54.4-37.8s51.6,12.8,51.6,42.8v70.7c0,1.4-1.2,2.6-2.6,2.6h-32.9c-1.4,0-2.6-1.2-2.6-2.6v-3.4c0-2.3-2.8-3.5-4.4-1.9-6,5.9-15.2,10.5-29.5,10.5C18,165.4-.1,155.5-.1,131.4H-.1v.2ZM71.7,123.4v-4.3c0-1.4-1.2-2.6-2.6-2.6h-7.7c-15.8,0-22.8,3-22.8,12.3s4.4,10.6,13.6,10.6,19.5-6.3,19.5-16h0Z"/>
    <path class="st2" d="M136.7,49.8h34c1.4,0,2.6,1.2,2.6,2.6v6.5c0,2.4,3,3.5,4.6,1.7,6.8-7.9,17.2-13.8,31.3-13.8s23.5,5.3,29.3,15.3c.9,1.5,3,1.8,4.2.4,9.6-11,22.1-15.8,35.4-15.8,21.6,0,37.4,13.8,37.4,42.2v71.4c0,1.4-1.2,2.6-2.6,2.6h-34c-1.4,0-2.6-1.2-2.6-2.6v-64.9c0-11.5-5.7-17.1-14.6-17.1s-17.5,6.7-17.5,19v63c0,1.4-1.2,2.6-2.6,2.6h-33.5c-1.4,0-2.6-1.2-2.6-2.6v-64.9c0-11.5-5.7-17.1-14.6-17.1s-17.5,6.7-17.5,19v63c0,1.4-1.2,2.6-2.6,2.6h-34c-1.4,0-2.6-1.2-2.6-2.6V52.4c0-1.4,1.2-2.6,2.6-2.6h0Z"/>
    <path class="st2" d="M332.6,107.8v-1.7c0-36.3,27.3-59.3,62.8-59.3s62.3,22.3,62.3,58.2v1.7c0,36.8-27.3,58.8-62.5,58.8s-62.5-21.2-62.5-57.8h0ZM418,107.1v-1.7c0-19-7.7-29.6-22.5-29.6s-22.8,10.2-22.8,29.2v1.7c0,19.5,7.6,30.1,22.8,30.1s22.5-10.8,22.5-29.6h0Z"/>
    <path class="st2" d="M475.8,49.8h34c1.4,0,2.6,1.2,2.6,2.6v7c0,2.5,3,3.5,4.6,1.6,7-8.3,17.9-14.3,33-14.3,22.1,0,37.4,13.6,37.4,42.6v71c0,1.4-1.2,2.6-2.6,2.6h-34c-1.4,0-2.6-1.2-2.6-2.6v-63.2c0-12.8-5-19-16.4-19s-19.5,6.9-19.5,21.4v60.8c0,1.4-1.2,2.6-2.6,2.6h-34c-1.4,0-2.6-1.2-2.6-2.6V52.4c0-1.4,1.2-2.6,2.6-2.6h.1Z"/>
    <path class="st2" d="M607.5,162.9h33.9c1.2,0,2.2.8,2.5,1.9,2.1,7.3,7.4,12.8,20.5,12.8s24.3-9.7,24.3-23.8v-9c0-2.4-3-3.5-4.5-1.7-6.8,8-17.4,14.2-30.9,14.2-26.7,0-48.6-19.5-48.6-54.3v-1.7c0-33.3,21.7-54.5,48.6-54.5s24.2,4.8,30.9,12.5c1.6,1.8,4.6.8,4.6-1.7v-5.2c0-1.4,1.2-2.6,2.6-2.6h34c1.4,0,2.6,1.2,2.6,2.6v101c0,33.7-22.5,51.5-63.4,51.5s-55.4-15-59.5-38.9c-.3-1.6,1-3,2.6-3h-.2ZM689.8,102.8v-1.5c0-15.6-8.1-25.5-22.5-25.5s-22.5,10.2-22.5,25.7v1.7c0,15.6,8.3,25.5,22.3,25.5s22.8-9.9,22.8-26h0Z"/>
  </g>
  <g>
    <g>
      <path class="st0" d="M978.1,122.1c7-16,6.3-34.6-2.8-49.6-8.2-13.5-23.7-25.7-53.1-25.6-27.8,0-43.2,10.9-51.8,23.3-10.5,15.1-11.7,34.7-4.2,51.4,12.4,27.8,51.6,84.3,55.8,84.3,6.5,0,44.1-56.3,56.1-83.8h0Z"/>
      <path class="st2" d="M930.6,126.2c-5.7,0-9.8-3.5-11.6-8.9-1.9,4.2-5.2,6.8-10,6.7-8.2-.2-12.7-8.1-12.5-16.9.2-9,5.1-16.5,13.1-16.3,4.8,0,7.9,2.9,9.7,7.1,2-5.5,6.2-8.5,11.8-8.4,9.2.2,14.2,8.2,14,18.7-.2,10.4-5.2,18.4-14.4,18.2h0v-.2ZM910.1,100.6c-3.6,0-6.1,2.8-6.2,6.5,0,3.8,2.2,6.8,6,6.8s6.2-3,6.3-6.7c0-3.8-2.2-6.6-6.1-6.7h0ZM930,99.9c-4.6,0-7.3,3.2-7.3,7.6s2.4,8,7.1,8.1c4.7,0,7.3-3.3,7.4-7.7,0-4.5-2.5-7.9-7.2-8h0Z"/>
    </g>
    <path class="st1" d="M911.6,144.5h0c-.5.4-.6,1.1-.2,1.6,2.5,2.7,10.7,10,18.8-2.1.3-.5.2-1.1-.3-1.4h0c-.5-.3-1.1-.1-1.4.3-1.7,2.7-7.8,10.3-15.5,1.8-.3-.4-.9-.4-1.3-.1h0Z"/>
  </g>
</svg>