<?xml version="1.0" encoding="UTF-8"?>
<svg id="Layer_1" data-name="Layer 1" xmlns="http://www.w3.org/2000/svg" viewBox="0 0 1426.83 205.91">
  <defs>
    <style>
      .cls-1 {
        fill: #ff5722;
      }

      .cls-2, .cls-3 {
        fill: #fff;
      }

      .cls-3 {
        stroke: #fff;
        stroke-miterlimit: 10;
        stroke-width: 2px;
      }
    </style>
  </defs>
  <g>
    <g>
      <path d="m803.35,0h33.43c1.43,0,2.59,1.16,2.59,2.59v158.13c0,1.43-1.16,2.59-2.59,2.59h-33.43c-1.43,0-2.59-1.16-2.59-2.59V2.59c0-1.43,1.16-2.59,2.59-2.59Z"/>
      <path d="m998.53,108v-1.73c0-37.74,27.11-59.43,60.51-59.43,26.98,0,51.9,11.47,55.28,43.76.16,1.53-1.05,2.86-2.59,2.86h-31.49c-1.21,0-2.25-.85-2.51-2.03-2.06-9.34-7.29-14.45-17.83-14.45-13.66,0-21.69,9.76-21.69,28.84v1.73c0,19.74,7.59,29.93,22.34,29.93,10.2,0,17.52-5.75,19.44-16.72.22-1.24,1.28-2.15,2.53-2.15h29.92c1.56,0,2.72,1.28,2.6,2.83-2.22,27.02-21.44,44.45-56.87,44.45s-59.64-19.74-59.64-57.91Z"/>
      <path d="m1128.86,131.86c0-26.68,22.55-37.09,60.29-37.09h10.84v-2.6c0-10.84-2.6-18-14.96-18-9.57,0-13.69,5.1-15.05,11.34-.26,1.21-1.3,2.1-2.55,2.1h-31.4c-1.55,0-2.76-1.35-2.58-2.88,3.02-25.39,24.05-37.89,53.96-37.89s51.18,12.8,51.18,42.94v70.93c0,1.43-1.16,2.59-2.59,2.59h-32.56c-1.43,0-2.59-1.16-2.59-2.59v-3.5c0-2.26-2.73-3.41-4.33-1.82-5.93,5.92-15.12,10.51-29.28,10.51-20.39,0-38.39-9.98-38.39-34.05Zm71.14-8.24v-4.35c0-1.43-1.16-2.59-2.59-2.59h-7.61c-15.62,0-22.55,3.04-22.55,12.36,0,6.5,4.34,10.63,13.45,10.63,11.06,0,19.3-6.29,19.3-16.05Z"/>
      <path d="m1267.63,0h33.43c1.43,0,2.59,1.16,2.59,2.59v158.13c0,1.43-1.16,2.59-2.59,2.59h-33.43c-1.43,0-2.59-1.16-2.59-2.59V2.59c0-1.43,1.16-2.59,2.59-2.59Z"/>
      <path d="m1326.14,127.3h30.88c1.22,0,2.25.85,2.52,2.04,1.6,6.95,5.55,10.76,15.66,10.76,9.54,0,13.88-3.69,13.88-9.33s-5.42-8.02-21.04-10.19c-30.36-3.9-43.16-12.8-43.16-36.43,0-25.16,22.34-37.3,48.58-37.3s46.03,8.85,49.74,33.7c.23,1.56-1,2.95-2.57,2.95h-30.18c-1.16,0-2.16-.79-2.48-1.9-1.82-6.31-5.96-9.38-14.07-9.38s-12.8,3.69-12.8,8.89,5.21,7.59,19.09,9.33c31.45,3.9,46.63,12.14,46.63,36.43,0,26.89-19.95,39.04-51.4,39.04s-49.73-12.45-51.87-35.79c-.14-1.51,1.07-2.81,2.59-2.81Z"/>
    </g>
    <g>
      <path class="cls-1" d="m977.94,121.89c6.98-16.04,6.29-34.65-2.78-49.61-8.17-13.46-23.69-25.67-53.09-25.57-27.79.1-43.25,10.9-51.85,23.29-10.45,15.05-11.66,34.69-4.2,51.42,12.39,27.76,51.57,84.32,55.83,84.32,6.5,0,44.11-56.31,56.09-83.85Z"/>
      <path class="cls-2" d="m930.36,126.06c-5.74-.12-9.83-3.5-11.64-8.95-1.87,4.25-5.22,6.76-9.97,6.67-8.18-.16-12.71-8.11-12.53-16.96.18-9.04,5.08-16.47,13.14-16.31,4.75.09,7.93,2.87,9.7,7.06,2.02-5.5,6.18-8.52,11.79-8.41,9.24.19,14.16,8.21,13.95,18.7-.21,10.43-5.19,18.38-14.43,18.2Zm-20.48-25.63c-3.63-.07-6.13,2.78-6.2,6.54-.08,3.76,2.17,6.78,6,6.86,3.83.08,6.2-2.98,6.27-6.67.08-3.83-2.18-6.65-6.07-6.72Zm19.95-.72c-4.62-.09-7.26,3.22-7.35,7.64-.09,4.36,2.42,7.97,7.1,8.07,4.69.09,7.33-3.35,7.42-7.71.09-4.49-2.48-7.91-7.17-8Z"/>
    </g>
  </g>
  <g>
    <path d="m0,131.58c0-26.61,22.75-36.99,60.8-36.99h8.35c1.43,0,2.59-1.16,2.59-2.6h0c0-10.82-2.62-17.95-15.09-17.95-9.65,0-13.8,5.09-15.17,11.31-.27,1.21-1.3,2.1-2.54,2.1H7.22c-1.55,0-2.76-1.35-2.58-2.89,3.06-25.31,24.26-37.78,54.41-37.78s51.62,12.76,51.62,42.83v70.73c0,1.43-1.16,2.6-2.59,2.6h-32.88c-1.43,0-2.59-1.16-2.59-2.6v-3.41c0-2.29-2.75-3.47-4.39-1.86-5.98,5.89-15.24,10.46-29.51,10.46-20.56,0-38.71-9.95-38.71-33.96Zm71.74-8.22v-4.33c0-1.43-1.16-2.6-2.59-2.6h-7.69c-15.75,0-22.75,3.03-22.75,12.33,0,6.49,4.37,10.6,13.56,10.6,11.15,0,19.47-6.27,19.47-16.01Z"/>
    <path d="m136.66,49.81h33.97c1.43,0,2.59,1.16,2.59,2.6v6.55c0,2.43,2.99,3.5,4.58,1.66,6.79-7.86,17.25-13.83,31.29-13.83s23.48,5.28,29.3,15.35c.89,1.54,3.02,1.79,4.19.44,9.59-11.04,22.12-15.8,35.4-15.8,21.65,0,37.4,13.84,37.4,42.18v71.38c0,1.43-1.16,2.6-2.59,2.6h-33.97c-1.43,0-2.59-1.16-2.59-2.6v-64.89c0-11.46-5.69-17.09-14.65-17.09-10.5,0-17.5,6.71-17.5,19.04v62.95c0,1.43-1.16,2.6-2.59,2.6h-33.53c-1.43,0-2.59-1.16-2.59-2.6v-64.89c0-11.46-5.69-17.09-14.65-17.09-10.5,0-17.5,6.71-17.5,19.04v62.95c0,1.43-1.16,2.6-2.59,2.6h-33.97c-1.43,0-2.59-1.16-2.59-2.6V52.41c0-1.43,1.16-2.6,2.59-2.6Z"/>
    <path d="m332.65,107.79v-1.73c0-36.34,27.34-59.27,62.77-59.27s62.33,22.28,62.33,58.19v1.73c0,36.77-27.34,58.84-62.55,58.84s-62.55-21.2-62.55-57.76Zm85.3-.65v-1.73c0-19.04-7.66-29.63-22.53-29.63s-22.75,10.17-22.75,29.2v1.73c0,19.47,7.65,30.07,22.75,30.07s22.53-10.82,22.53-29.64Z"/>
    <path d="m475.84,49.81h33.97c1.43,0,2.59,1.16,2.59,2.6v7.05c0,2.45,3.04,3.5,4.61,1.63,6.95-8.31,17.91-14.3,33.01-14.3,22.09,0,37.4,13.63,37.4,42.61v70.95c0,1.43-1.16,2.6-2.59,2.6h-33.97c-1.43,0-2.59-1.16-2.59-2.6v-63.16c0-12.76-5.03-19.04-16.4-19.04s-19.47,6.92-19.47,21.41v60.78c0,1.43-1.16,2.6-2.59,2.6h-33.97c-1.43,0-2.59-1.16-2.59-2.6V52.41c0-1.43,1.16-2.6,2.59-2.6Z"/>
    <path d="m607.47,162.95h33.92c1.17,0,2.17.79,2.5,1.91,2.12,7.29,7.42,12.8,20.52,12.8,17.28,0,24.28-9.73,24.28-23.8v-9.02c0-2.39-2.98-3.54-4.53-1.72-6.77,7.96-17.4,14.2-30.9,14.2-26.68,0-48.56-19.47-48.56-54.29v-1.73c0-33.31,21.65-54.51,48.56-54.51,14.44,0,24.18,4.79,30.86,12.52,1.58,1.83,4.57.76,4.57-1.66v-5.23c0-1.43,1.16-2.6,2.59-2.6h33.97c1.43,0,2.59,1.16,2.59,2.6v101.02c0,33.74-22.53,51.48-63.43,51.48-37.38,0-55.4-14.96-59.49-38.94-.27-1.58.96-3.03,2.56-3.03Zm82.3-60.13v-1.51c0-15.57-8.09-25.52-22.53-25.52s-22.53,10.17-22.53,25.74v1.73c0,15.57,8.31,25.53,22.31,25.53s22.75-9.95,22.75-25.96Z"/>
  </g>
  <g>
    <g>
      <path class="cls-1" d="m978.13,122.07c6.98-16.04,6.29-34.64-2.78-49.6-8.17-13.46-23.68-25.67-53.08-25.56-27.79.1-43.25,10.9-51.84,23.28-10.45,15.05-11.66,34.68-4.19,51.41,12.38,27.75,51.56,84.3,55.82,84.3,6.5,0,44.1-56.3,56.08-83.84Z"/>
      <path class="cls-2" d="m930.56,126.24c-5.74-.12-9.83-3.5-11.64-8.95-1.87,4.25-5.22,6.76-9.97,6.66-8.18-.16-12.71-8.11-12.53-16.95.18-9.04,5.08-16.47,13.13-16.3,4.75.09,7.93,2.86,9.69,7.06,2.02-5.5,6.18-8.52,11.79-8.41,9.24.19,14.16,8.2,13.95,18.7-.21,10.43-5.19,18.38-14.42,18.2Zm-20.48-25.63c-3.63-.07-6.13,2.78-6.2,6.54-.08,3.76,2.17,6.78,6,6.85,3.83.08,6.2-2.98,6.27-6.67.08-3.83-2.18-6.64-6.07-6.72Zm19.95-.72c-4.62-.09-7.26,3.22-7.35,7.64-.09,4.36,2.41,7.97,7.1,8.07,4.68.09,7.33-3.35,7.41-7.71.09-4.49-2.48-7.9-7.17-8Z"/>
    </g>
    <path class="cls-3" d="m911.59,144.54l-.11.08c-.5.35-.58,1.06-.17,1.52,2.47,2.71,10.7,10.03,18.84-2.1.32-.48.18-1.14-.32-1.44h0c-.47-.28-1.07-.14-1.37.31-1.73,2.66-7.77,10.27-15.54,1.78-.34-.38-.91-.44-1.33-.15Z"/>
  </g>
</svg>
