<?xml version="1.0" encoding="UTF-8"?>
<svg xmlns="http://www.w3.org/2000/svg" viewBox="0 0 1879 1246">
  <defs>
    <style>
      .cls-1, .cls-2, .cls-3, .cls-4, .cls-5, .cls-6, .cls-7 {
        stroke-linecap: round;
      }

      .cls-1, .cls-8 {
        fill: #f49ba2;
      }

      .cls-1, .cls-8, .cls-4, .cls-9, .cls-10, .cls-11, .cls-12 {
        stroke-width: 5px;
      }

      .cls-1, .cls-8, .cls-9, .cls-13, .cls-10, .cls-14, .cls-6, .cls-11, .cls-7, .cls-15 {
        stroke: #4e2413;
      }

      .cls-1, .cls-3, .cls-4, .cls-7 {
        stroke-linejoin: round;
      }

      .cls-2, .cls-8, .cls-9, .cls-13, .cls-10, .cls-14, .cls-5, .cls-6, .cls-11, .cls-12, .cls-15 {
        stroke-miterlimit: 10;
      }

      .cls-2, .cls-3, .cls-13, .cls-14, .cls-5, .cls-6, .cls-7, .cls-15 {
        stroke-width: 8px;
      }

      .cls-2, .cls-13, .cls-10 {
        fill: #c79f87;
      }

      .cls-2, .cls-5 {
        stroke: #43241b;
      }

      .cls-16 {
        fill: #ecb57e;
      }

      .cls-17 {
        fill: #42261d;
      }

      .cls-3 {
        stroke: #41241c;
      }

      .cls-3, .cls-7 {
        fill: none;
      }

      .cls-4 {
        fill: #aeccf2;
        stroke: #432217;
      }

      .cls-9 {
        fill: #4e2413;
      }

      .cls-18 {
        fill: #43241b;
      }

      .cls-14, .cls-6 {
        fill: #fff;
      }

      .cls-5 {
        fill: #ce9d85;
      }

      .cls-11 {
        fill: #f55760;
      }

      .cls-19 {
        fill: #f2b6ad;
      }

      .cls-12 {
        fill: #f55863;
        stroke: #000;
      }

      .cls-20 {
        fill: #432220;
      }

      .cls-15 {
        fill: #f5f5f3;
      }
    </style>
  </defs>
  <g id="bubu">
    <path id="body_bubu" data-name="body bubu" class="cls-13" d="M867.09,730.56c-19.02,35.99-54.27,52.39-79.97,62.68-11.5,4.6-23.86,9.55-36.98,14.65-.76,23.5-10.27,285.27-49.48,320.37,0,0-5.92,57.82-39.88,69.08-5.21,1.73-11.89.86-24.97.09-19.26-1.15-29.55-1.77-38.91-6.48-18.42-9.29-25.48-30.56-28.1-41.07l-207.5-4.32c-2.94,5.68-18.44,34.13-51.88,43.23-19.86,5.4-50.58,5.21-67.01-12.97-10.53-11.65-8.88-23.71-12.97-47.55-6.98-40.83-21.74-63.61-28.1-79.97-11.84-30.46-14.85-90.7,28.1-222.63-30.89-18.57-91.65-56.22-123.2-129.69-8.8-20.49-16.73-47.03-19.45-88.62-2.51-38.37-12.82-195.92,75.65-304.77,134.49-165.46,442.3-150.81,587.92-19.45,89.1,80.39,110.24,183.73,110.24,183.73,10.74,52.57,5.53,97.4,0,125.37,3.83,6.38,8.88,15.91,12.97,28.1,11.84,35.36,10.5,78.07-6.48,110.24Z"/>
    <circle class="cls-16" cx="284.57" cy="718.67" r="78.89"/>
    <circle class="cls-16" cx="791.44" cy="693.81" r="78.89"/>
    <path class="cls-12" d="M305.11,873.22c-9.62-50.66,6.45-101.49,43.23-131.85,34.59-28.55,74.83-28.55,86.46-28.1,55.26,2.14,88.97,38.53,95.1,45.39,3.8-4.93,9.55-11.88,17.29-19.45,11.75-11.5,45.25-44.29,90.78-49.71,45.76-5.45,92.46,18.08,118.88,51.88,46.33,59.26,21.18,138.43,12.97,164.27-40.58,127.71-179.64,174.7-201.02,181.56-10.69-3.13-26.55-8.07-45.39-15.13-50.91-19.08-105.14-39.4-149.14-82.14-18.46-17.93-50.05-54.29-69.17-116.72Z"/>
    <ellipse class="cls-18" cx="400.21" cy="617.08" rx="36.75" ry="37.83"/>
    <circle class="cls-17" cx="694.17" cy="611.68" r="34.58"/>
    <path class="cls-3" d="M516.93,626.81s21.88,34.58,36.88,0c0,0,30.92,30.26,34.85,0"/>
    <path class="cls-2" d="M248.91,862.41c14.72,1.83,85.29,11.79,112.4,58.36,3.62,6.22,10.17,17.82,8.65,32.42-3.09,29.68-36.8,45.61-41.07,47.55-31.05,14.14-70.97,4.92-103.75-21.61"/>
    <path class="cls-5" d="M782.79,901.32c-16.17-12.1-49.93,7.23-67.01,25.94-5.64,6.18-19.93,22.31-19.45,45.39.13,6.54.47,23.18,10.81,30.26,17.31,11.86,56.57-7.24,73.49-36.75,11.91-20.77,16.85-53.85,2.16-64.84Z"/>
    <path class="cls-4" d="M2.5,646.26c74.72-50.27,176.56-106.68,304.77-146.98,269.27-84.64,504.47-50.97,626.83-23.78,0,0-75.65-118.88-103.75-129.69-20.17-7.76-37.19-13.21-86.25-19.62-42.68-5.57-132.29-17.27-181.77-17.13-100.46.28-284.41,50.07-488.49,170.76L2.5,646.26Z"/>
    <path class="cls-4" d="M85.74,617.08l12.7,63.76s-89.46-15.13-95.94-34.58l80.81-48.07,2.43,18.89Z"/>
    <path class="cls-4" d="M866.25,561.96s76.49-49.71,67.84-86.46l-71.33-11.48c7.06,30.58,7.74,63.4,3.48,97.94Z"/>
    <path class="cls-4" d="M73.83,479.83c-7.12,4.81.12-21.42,2.16-36.75,17.87-133.89,143.16-232.9,239.92-274.51,21.57-9.27,214.23-88.13,382.58,21.61,71.06,46.32,109.29,107.67,127.53,142.66l4.32,12.97S406.7,255.03,73.83,479.83Z"/>
    <path class="cls-10" d="M108.41,341.49c0,4.05-27.54-20.89-28.1-51.88-.37-20.56,9.91-34.81,12.97-38.91,19.27-25.87,56.62-35.27,84.3-23.78,8.88,3.68,15.29,8.91,19.45,12.97,0,0-88.62,90.78-88.62,101.59Z"/>
    <path class="cls-10" d="M778.47,257.2c2.28,6.08,11.79-18.26,12.97-36.75,1.34-20.98-7.01-36.05-8.65-38.91-13.31-23.21-42.13-39.38-71.33-34.58-22.34,3.67-36.25,18.19-41.07,23.78,0,0,101.59,69.17,108.07,86.46Z"/>
    <path class="cls-9" d="M121.49,317.03c0,2.32-15.75-11.95-16.07-29.67-.21-11.76,5.67-19.91,7.42-22.25,11.02-14.8,32.38-20.17,48.22-13.6,5.08,2.11,8.74,5.1,11.13,7.42,0,0-50.69,51.92-50.69,58.11Z"/>
    <path class="cls-9" d="M757.59,235.65c1.35,3.61,7-10.85,7.7-21.83.8-12.46-4.16-21.42-5.14-23.11-7.91-13.79-25.03-23.4-42.38-20.55-13.27,2.18-21.53,10.81-24.4,14.13,0,0,60.36,41.09,64.21,51.37Z"/>
  </g>
  <g id="dudu">
    <path class="cls-14" d="M1783.56,689.49c-12.19,32.9-28.4,75.11-69.17,108.07-12.82,10.38-26.19,18.31-39.71,24.4-12.05,5.42-17.39,19.61-12.16,31.74,8.55,19.84,12.95,39.3,17.29,58.42,25.41,112.27-7.26,209.09-30.04,260.11-3.91,8.77-12.62,14.4-22.22,14.4h-76.26c-6.56,0-12.83-2.65-17.42-7.34-8.77-8.94-21.95-23.58-20.5-29.41,1.78-7.12-128.3-3.98-174.32-2.65-9.14.26-17.44,5.54-21.39,13.78-5.39,11.27-14.31,25.61-24.78,25.61-23.97,0-60.52,17.01-87.71,0-23.62-14.78-26.95-39.43-39.79-90.78-37.33-149.4-69.08-181.24-51.88-259.38,1.88-8.52,3.34-15.17,4.95-20.96,3.2-11.53-2.34-23.68-13.23-28.64l-1.54-.7c-2.55-1.16-5.28-1.9-8.07-2.11-40.26-2.98-59.43-16.71-69.5-29.36-32.77-41.2-12.35-126.74-6.82-147.2.81-2.99,1.04-6.07.69-9.15-1.75-15.27-2.98-35.09-1.59-58,7.93-130.86,95.04-266.21,213.99-324.22,220.02-107.32,517.44,65.34,566.31,255.05,14.48,56.2,13.88,140.02-15.13,218.31Z"/>
    <circle class="cls-19" cx="1592.27" cy="722.99" r="72.41"/>
    <circle class="cls-19" cx="1089.72" cy="698.14" r="72.41"/>
    <path class="cls-11" d="M1353.42,756.5c5.47-6.13,38.47-41.86,92.94-43.23,6.63-.17,54.01-.62,90.78,34.58,45.13,43.21,40,107.32,38.91,121.04-7.32,91.49-111.63,177.08-259.38,213.99-6.52-2.21-16.39-5.76-28.1-10.81-19.53-8.42-193.95-83.57-201.02-213.99-2.37-43.73,12.78-117.76,75.65-149.14,51.07-25.49,117.11-14.61,166.43,28.1l23.78,19.45Z"/>
    <path class="cls-7" d="M1295.06,626.81c.08,7.92,4.48,14.86,10.81,17.29,8.55,3.28,19.99-1.92,23.78-12.97,0,0,30.41,36.75,33.58-4.32"/>
    <ellipse class="cls-20" cx="1189.15" cy="611.68" rx="32.42" ry="34.58"/>
    <ellipse class="cls-20" cx="1480.95" cy="620.32" rx="30.26" ry="32.42"/>
    <path class="cls-15" d="M1098.18,914.44c3.86-7.77,12.33-12.04,20.87-10.51,15.51,2.79,40.22,10.63,56.05,33.04,3.19,4.52,23.52,33.31,10.81,56.2-6.42,11.57-19.83,19.01-32.42,19.45-32.5,1.13-66.72-44.14-60.52-82.14,1-6.12,2.95-11.49,5.22-16.05Z"/>
    <path class="cls-6" d="M1627.93,873.22c-10.09,8.24-26.15,18.73-47.55,21.61-12.51,1.69-16.36-.64-25.94,2.16-18.85,5.51-38.64,24.67-41.07,47.55-3.37,31.82,28.36,56.41,51.88,64.84,30.66,11,66.57,1.4,92.94-23.78"/>
    <path class="cls-1" d="M944.9,484.15c99.45-21.66,251.93-42.27,434.46-17.29,231.92,31.73,402.76,122.05,497.14,181.56,0,0-38.91-140.5-64.84-159.95-10.47-7.85-27.43-26.01-118.88-69.17-9.07-4.28-97.99-46.1-146.98-62.68-178.32-60.34-480.93-7.27-497.14-4.32,0,0-110.24,116.72-103.75,131.85Z"/>
    <path class="cls-8" d="M1014.07,570.61s-67.01-62.68-69.17-86.46l80.97-11.65c-7.49,32.71-11.42,65.41-11.81,98.1Z"/>
    <path class="cls-8" d="M1786.67,690.57s89.83-9.73,89.83-42.15l-69.17-36.75-20.66,78.89Z"/>
    <path class="cls-1" d="M1811.66,488.47v-32.42c-8.06-30.06-50.75-176.86-198.86-261.54-104.66-59.84-206.85-57.15-255.05-51.88-50.87,5.56-194.63,30.84-276.67,149.14-13.88,20.02-24.42,40.47-32.42,60.52,0,0,451.75-71.33,763,136.17Z"/>
    <path class="cls-9" d="M1104.85,261.52c-2.46,5.54-16.24-21.63-15.13-45.39,1.19-25.36,17.19-44.6,32.42-54.04,28.1-17.4,69.5-11.3,99.43,17.29,0,0-99.43,43.23-116.72,82.14Z"/>
    <path class="cls-9" d="M1679.81,242.07c-5.74,0,14.2-18.08,32.42-21.61,21.77-4.23,38.91,8.64,47.55,15.13,2.3,1.73,42.13,32.66,34.58,77.81-3.76,22.51-17.41,37.2-23.78,43.23,0,0-67.01-114.56-90.78-114.56Z"/>
  </g>
</svg>